<?xml version="1.0" encoding="utf-8"?>
<!-- Generator: Adobe Illustrator 19.0.0, SVG Export Plug-In . SVG Version: 6.00 Build 0)  -->
<svg version="1.1" id="Layer_1" xmlns="http://www.w3.org/2000/svg" xmlns:xlink="http://www.w3.org/1999/xlink" x="0px" y="0px"
	 viewBox="0 0 512 512" style="enable-background:new 0 0 512 512;" xml:space="preserve">
<g id="XMLID_1_" fill="#666666">
	<path id="XMLID_5_" d="M437,165.5c-8.2-75-71.7-133.7-149.2-133.7c-51.4,0-96.2,25.3-123.1,64.4c-8.2-3.3-17.1-5.7-26.9-5.7
		c-39.1,0-70.9,34.2-71.7,73.4c-39.9,13-66,51.4-66,92.9c0,50.5,40.8,94.6,91.3,94.6h152.5v-141l-48.1,47.3c-4.9,4.9-13,4.9-18.8,0
		c-4.9-4.9-4.9-13,0-18.8l70.1-69.3c0.8-0.8,2.4-2.4,4.1-2.4c1.6-0.8,3.3-0.8,4.9-0.8c3.3,0,6.5,1.6,9,4.1l70.1,69.3
		c4.9,4.9,4.9,13,0,18.8c-4.9,4.9-13,4.9-18.8,0l-48.1-47.3V353h152.5c50.5,0,91.3-44,91.3-94.6C512,212.8,480.2,173.7,437,165.5z
		 M243,467.2c0,7.3,5.7,13,13,13s13-5.7,13-13v-115H243C243,352.2,243,467.2,243,467.2z"/>
</g>
</svg>
