<svg height="20px" width="20px" xmlns="http://www.w3.org/2000/svg" xmlns:xlink="http://www.w3.org/1999/xlink" aria-hidden="true" focusable="false" style="-ms-transform: rotate(360deg); -webkit-transform: rotate(360deg); transform: rotate(360deg);" preserveAspectRatio="xMidYMid meet" viewBox="0 0 15 15" ><g fill="none"><path fill-rule="evenodd" clip-rule="evenodd" d="M2.146 11.146a.5.5 0 0 0 .708.708l4-4a.5.5 0 0 0 0-.708l-4-4a.5.5 0 1 0-.708.708L5.793 7.5l-3.647 3.646zm6 0a.5.5 0 0 0 .708.708l4-4a.5.5 0 0 0 0-.708l-4-4a.5.5 0 1 0-.708.708L11.793 7.5l-3.647 3.646z" fill="#3388DD" /></g></svg>