<svg xmlns="http://www.w3.org/2000/svg" width="10.5" height="14" viewBox="0 0 10.5 14">
  <path id="Icon_awesome-notes-medical" data-name="Icon awesome-notes-medical" d="M9.188,1.75H7a1.75,1.75,0,0,0-3.5,0H1.313A1.313,1.313,0,0,0,0,3.063v9.625A1.313,1.313,0,0,0,1.313,14H9.188A1.313,1.313,0,0,0,10.5,12.688V3.063A1.313,1.313,0,0,0,9.188,1.75ZM5.25,1.094a.656.656,0,1,1-.656.656A.655.655,0,0,1,5.25,1.094ZM7.875,9.406a.219.219,0,0,1-.219.219H2.844a.219.219,0,0,1-.219-.219c0-1.433.1-1.531.219-1.531H7.656a.219.219,0,0,1,.219.219Zm0-5.25a.219.219,0,0,1-.219.219H2.844a.219.219,0,0,1-.219-.219V3.719A.219.219,0,0,1,2.844,3.5H7.656a.219.219,0,0,1,.219.219Z" fill="#444"/>
</svg>
