<svg xmlns="http://www.w3.org/2000/svg" width="20.946" height="20.947" viewBox="0 0 20.946 20.947">
  <path id="Icon_awesome-sun" data-name="Icon awesome-sun" d="M10.473,6.546A3.928,3.928,0,1,0,14.4,10.473,3.934,3.934,0,0,0,10.473,6.546ZM20.554,9.839,16.68,7.9,18.05,3.8a.707.707,0,0,0-.9-.9L13.047,4.271,11.108.393a.708.708,0,0,0-1.268,0L7.9,4.267,3.793,2.9a.707.707,0,0,0-.9.9L4.267,7.9.393,9.839a.708.708,0,0,0,0,1.268l3.874,1.935L2.9,17.154a.707.707,0,0,0,.9.9L7.9,16.68l1.935,3.874a.708.708,0,0,0,1.268,0l1.935-3.874,4.108,1.371a.707.707,0,0,0,.9-.9l-1.371-4.108,3.874-1.935a.709.709,0,0,0,.008-1.272Zm-6.378,4.337a5.236,5.236,0,1,1,0-7.405A5.242,5.242,0,0,1,14.176,14.176Z" transform="translate(0 0)" fill="#fff" stroke="#3388dd"/>
</svg>
