<svg xmlns="http://www.w3.org/2000/svg" viewBox="0 0 136.8 54.41">
    <defs>
        <style>.cls-1{fill:#fff;}</style>
    </defs>
    <g id="Layer_2" data-name="Layer 2">
        <g id="Layer_1-2" data-name="Layer 1">
            <path class="cls-1" d="M1,27.59c0-1,.15-2.62-1-3v-.06H4.18v.06c-1.1.42-1,2.05-1,3V35.9c0,1-.13,2.6,1,3V39H0v-.06c1.1-.4,1-2,1-3Z" />
            <path class="cls-1" d="M6.83,28.85a2.89,2.89,0,0,0,1.48-.29h.06v1.7a3.58,3.58,0,0,1,3.11-1.7,4.13,4.13,0,0,1,3.35,1.52,6,6,0,0,1,.54,3.28v3.2c0,1-.13,1.81.84,2.36V39H12.53v-.07c1-.55.84-1.37.84-2.36v-3c0-2.36-.66-3.57-2.67-3.57s-2.33,1.34-2.33,2.64v3.9c0,1-.13,1.81.84,2.36V39H5.53v-.07c1-.55.83-1.37.83-2.38V31.3c0-1,.14-1.83-.83-2.38v-.07Z" />
            <path class="cls-1" d="M20.69,34.71c0,.84-.27,3.11,2.08,3.11a2.53,2.53,0,0,0,.89-.22l-1.17,1.56a2.35,2.35,0,0,1-.71.11c-3.41,0-3.1-3.52-3.1-4.38V30.3h-1.5v-.79c2.07-.35,2.62-1.89,2.62-3.94h.89v3.28h2.07a1.73,1.73,0,0,0,.83-.13h.07v2h-.07c-.35-.46-1-.42-1.58-.42H20.69Z" />
            <path class="cls-1" d="M32.56,32.29A2.55,2.55,0,0,0,29.71,30a2.74,2.74,0,0,0-2.84,2.27Zm-5.77,1.27a4.12,4.12,0,0,0,4.4,4.26,5.83,5.83,0,0,0,3.61-1.17h.07l-1.1,2.07a7.84,7.84,0,0,1-3,.55c-3.75,0-6.32-2.35-6.32-5.42a5.17,5.17,0,0,1,5.5-5.29,4.73,4.73,0,0,1,5,5Z" />
            <path class="cls-1" d="M37.56,28.85a2.11,2.11,0,0,0,1.34-.29H39v1.68a2.92,2.92,0,0,1,2.6-1.68l.79.07v2a1.36,1.36,0,0,0-1-.36c-1.68,0-2.38.89-2.38,3.15v3.09c0,1-.13,1.83.83,2.38V39H36.12v-.07c1-.55.84-1.37.84-2.38V31.27c0-1,.14-1.8-.81-2.35v-.07Z" />
            <path class="cls-1" d="M45.4,28.85a2.27,2.27,0,0,0,1.36-.29h.07V30.3a3.31,3.31,0,0,1,3.1-1.74,3.73,3.73,0,0,1,3.44,1.92,4.06,4.06,0,0,1,3.53-1.92c3.12,0,3.94,1.79,3.94,4.59v3.39c0,1-.13,2,1,2.38V39H58v-.07c1-.55.83-1.37.83-2.38V33.7c0-2.25-.7-3.68-2.46-3.68-2,0-2.54,1.25-2.54,3.32v3.2c0,1-.13,1.83.84,2.38V39H51v-.07c1-.55.84-1.37.84-2.38v-3c0-2.31-1.15-3.48-2.51-3.48-1.68,0-2.49,1-2.49,3.15v3.37c0,1-.14,1.8.81,2.38V39H44v-.07c1-.55.83-1.37.83-2.38V31.27c0-1,.13-1.8-.83-2.35v-.07Z" />
            <path class="cls-1" d="M72,34.27C72,32.13,70.86,30,68.5,30a3.37,3.37,0,0,0-3.37,3.59c0,2,1.21,4.21,3.46,4.21A3.39,3.39,0,0,0,72,34.27M62.91,34c0-3.31,2.66-5.45,5.84-5.45a5.3,5.3,0,0,1,5.48,5.25,5.56,5.56,0,0,1-5.75,5.46A5.32,5.32,0,0,1,62.91,34" />
            <path class="cls-1" d="M83.53,28.85c.57,0,1.25.09,1.65-.29h.06v8c0,1-.13,1.83.84,2.34V39H83.24V37.55a3.32,3.32,0,0,1-3.17,1.72c-2.6,0-3.83-1.48-3.83-4.58V31.3c0-1,.12-1.83-.84-2.38v-.07h1.43a2.17,2.17,0,0,0,1.35-.29h.06v5.75c0,2,.57,3.29,2.49,3.29a2.62,2.62,0,0,0,2.51-2.89V31.32c0-1,.13-1.83-.84-2.4v-.07Z" />
            <path class="cls-1" d="M88.55,28.85A2.89,2.89,0,0,0,90,28.56h.06v1.7a3.59,3.59,0,0,1,3.11-1.7,4.13,4.13,0,0,1,3.35,1.52,6,6,0,0,1,.55,3.28v3.2c0,1-.14,1.81.83,2.36V39H94.26v-.07c1-.55.83-1.37.83-2.36v-3c0-2.36-.66-3.58-2.66-3.58s-2.34,1.35-2.34,2.65v3.9c0,1-.13,1.81.84,2.36V39H87.25v-.07c1-.55.84-1.37.84-2.38V31.3c0-1,.13-1.83-.84-2.39v-.06Z" />
            <path class="cls-1" d="M102,34.71c0,.84-.26,3.11,2.1,3.11a2.53,2.53,0,0,0,.88-.22l-1.17,1.56a2.33,2.33,0,0,1-.7.11c-3.42,0-3.11-3.52-3.11-4.38V30.3h-1.5v-.79c2.07-.35,2.62-1.89,2.62-3.94H102v3.28H104a1.73,1.73,0,0,0,.83-.13h.07v2h-.07c-.35-.46-1-.42-1.58-.42H102Z" />
            <path class="cls-1" d="M115,39.27c-1.45-.09-2.91-.53-2.91-2.29V33.5a9.3,9.3,0,0,1-2.11.68c-1.06.25-2.25.49-2.25,1.83s1.23,1.81,2.4,1.81a6,6,0,0,0,1.59-.31l-1.3,1.65a6.38,6.38,0,0,1-1.14.11c-2.23,0-3.77-1.41-3.77-3.24,0-4.09,6.58-2.2,6.58-4.6,0-1.06-1.3-1.42-2.11-1.42a6.82,6.82,0,0,0-3,.89l1.47-2.21,1.44-.13c2.38,0,4.18.68,4.21,3.35v3.31c0,1.74,0,2.39,1.87,2.6Z" />
            <path class="cls-1" d="M118.2,27.53a1.42,1.42,0,0,1-1.43-1.46,1.37,1.37,0,0,1,1.43-1.3,1.38,1.38,0,0,1,0,2.76m-.42,1.32a2.11,2.11,0,0,0,1.43-.35h.07v8c0,1-.13,1.83.84,2.38V39h-3.68v-.07c1-.55.83-1.37.83-2.38V31.27c0-1,.13-1.8-.83-2.36v-.06Z" />
            <path class="cls-1" d="M122.91,28.85a2.85,2.85,0,0,0,1.48-.29h.06v1.7a3.6,3.6,0,0,1,3.11-1.7,4.13,4.13,0,0,1,3.35,1.52,5.93,5.93,0,0,1,.55,3.28v3.2c0,1-.13,1.81.84,2.36V39h-3.68v-.07c1-.55.83-1.37.83-2.36v-3c0-2.36-.66-3.58-2.66-3.58s-2.34,1.35-2.34,2.65v3.9c0,1-.13,1.81.84,2.36V39h-3.67v-.07c1-.55.83-1.37.83-2.38V31.3c0-1,.13-1.83-.83-2.39v-.06Z" />
            <path class="cls-1" d="M64.48,3.42a1.67,1.67,0,1,1,1.67,1.67,1.67,1.67,0,0,1-1.67-1.67" />
            <path class="cls-1" d="M66.14,24.49a.36.36,0,0,0,.33-.26L70.84,3.69V3.63a.37.37,0,0,0-.36-.39.35.35,0,0,0-.31.18L66.5,8.83l0,0a.43.43,0,0,1-.34.16h0a.46.46,0,0,1-.35-.16v0L62.12,3.42a.37.37,0,0,0-.31-.18.37.37,0,0,0-.36.39v.06l4.38,20.54a.36.36,0,0,0,.33.26Z" />
            <path class="cls-1" d="M68.39,22a.23.23,0,0,0,.28,0L78,9.09h0l0,0a.33.33,0,0,0-.1-.4.21.21,0,0,0-.24,0l-3.86,2.18h0a.27.27,0,0,1-.26,0h0a.34.34,0,0,1-.16-.24h0L74.06.27A.3.3,0,0,0,73.94,0a.23.23,0,0,0-.34.13v0L68.28,21.73a.29.29,0,0,0,.12.28Z" />
            <path class="cls-1" d="M74.12,17.09a.16.16,0,0,0,.19.07l9.28-5h0l0,0a.24.24,0,0,0,0-.3.15.15,0,0,0-.16-.08l-3.18.15h0a.19.19,0,0,1-.17-.1h0a.33.33,0,0,1,0-.22h0L81.67,7a.26.26,0,0,0,0-.21.17.17,0,0,0-.26,0h0l-7.25,10a.23.23,0,0,0,0,.24Z" />
            <path class="cls-1" d="M63.69,22a.21.21,0,0,1-.27,0L54.09,9.09h0l0,0a.33.33,0,0,1,.1-.4.23.23,0,0,1,.25,0l3.86,2.18h0a.27.27,0,0,0,.26,0h0a.34.34,0,0,0,.16-.24h0L58,.27A.28.28,0,0,1,58.15,0a.23.23,0,0,1,.33.13v0l5.3,21.53a.29.29,0,0,1-.12.28Z" />
            <path class="cls-1" d="M58,17.09a.18.18,0,0,1-.2.07l-9.28-5h0l0,0a.24.24,0,0,1,0-.3.15.15,0,0,1,.16-.08l3.18.15h0a.18.18,0,0,0,.16-.1h0a.28.28,0,0,0,0-.22h0L50.41,7a.26.26,0,0,1,0-.21.16.16,0,0,1,.26,0h0l7.25,10a.23.23,0,0,1,0,.24Z" />
            <polygon class="cls-1" points="22.53 42.61 24.86 42.61 24.86 47.3 29.51 47.3 29.51 42.61 31.84 42.61 31.84 54.21 29.51 54.21 29.51 49.12 24.86 49.12 24.86 54.21 22.53 54.21 22.53 42.61" />
            <path class="cls-1" d="M40,49.09c-.06-1.08-.56-2-1.81-2a1.94,1.94,0,0,0-2,2Zm1.5,4.64a6,6,0,0,1-2.94.68c-2.83,0-4.47-1.63-4.47-4.44,0-2.48,1.31-4.52,4-4.52,3.17,0,4.07,2.18,4.07,5.17H36.17a2.24,2.24,0,0,0,2.45,2.16,5.72,5.72,0,0,0,2.84-.87Z" />
            <path class="cls-1" d="M47.17,52.78A1.9,1.9,0,0,0,48.74,52a2.85,2.85,0,0,0,.46-1.76h-1c-1,0-2.48.17-2.48,1.48,0,.73.62,1.05,1.41,1.05m-2.6-6.68a7.59,7.59,0,0,1,3-.65c2.61,0,3.69,1.08,3.69,3.61v1.09c0,.87,0,1.52,0,2.15s.05,1.24.1,1.91h-2a12.06,12.06,0,0,1-.1-1.28h0a3.06,3.06,0,0,1-2.64,1.48,2.73,2.73,0,0,1-3-2.55,2.49,2.49,0,0,1,1.46-2.43A6.71,6.71,0,0,1,48,48.92H49.2c0-1.38-.62-1.84-1.93-1.84a4.53,4.53,0,0,0-2.64.93Z" />
            <rect class="cls-1" x="53.72" y="41.75" width="2.23" height="12.46" />
            <path class="cls-1" d="M59.93,47.28H58.29V45.65h1.64V43.94l2.23-.71v2.42h2v1.63h-2v4c0,.74.2,1.42,1.05,1.42a2.09,2.09,0,0,0,1-.23l.06,1.76a5.87,5.87,0,0,1-1.64.2,2.52,2.52,0,0,1-2.71-2.78Z" />
            <path class="cls-1" d="M66.91,41.75h2.23v5.06h0a3.19,3.19,0,0,1,2.69-1.36c2,0,2.91,1.43,2.91,3.36v5.4H72.55V49.64c0-1,0-2.46-1.45-2.46-1.61,0-2,1.74-2,2.84v4.19H66.91Z" />
            <path class="cls-1" d="M83,47.5a3.26,3.26,0,0,0-1.51-.32c-1.38,0-2.27,1.09-2.27,2.71s.75,2.79,2.31,2.79a4.68,4.68,0,0,0,1.72-.4l.1,1.84a7.27,7.27,0,0,1-2.23.29c-2.81,0-4.22-1.91-4.22-4.52s1.46-4.44,4.14-4.44a7,7,0,0,1,2.16.29Z" />
            <path class="cls-1" d="M88.69,52.78A1.9,1.9,0,0,0,90.26,52a2.85,2.85,0,0,0,.46-1.76h-1c-1,0-2.47.17-2.47,1.48,0,.73.62,1.05,1.41,1.05m-2.6-6.68a7.59,7.59,0,0,1,3-.65c2.61,0,3.69,1.08,3.69,3.61v1.09c0,.87,0,1.52,0,2.15s0,1.24.1,1.91h-2a12.06,12.06,0,0,1-.1-1.28h0a3.06,3.06,0,0,1-2.64,1.48,2.73,2.73,0,0,1-3-2.55,2.49,2.49,0,0,1,1.46-2.43,6.68,6.68,0,0,1,2.87-.51h1.23c0-1.38-.61-1.84-1.93-1.84a4.53,4.53,0,0,0-2.64.93Z" />
            <path class="cls-1" d="M95.57,45.65h2v1.94h0a2.63,2.63,0,0,1,2.34-2.14,2.38,2.38,0,0,1,.69.07v2.24a2.38,2.38,0,0,0-1-.18c-1.81,0-1.81,2.26-1.81,3.49v3.14H95.57Z" />
            <path class="cls-1" d="M107.63,49.09c-.06-1.08-.56-2-1.81-2a1.93,1.93,0,0,0-2,2Zm1.5,4.64a6,6,0,0,1-2.94.68c-2.82,0-4.47-1.63-4.47-4.44,0-2.48,1.31-4.52,4-4.52,3.18,0,4.07,2.18,4.07,5.17h-5.91a2.23,2.23,0,0,0,2.44,2.16,5.72,5.72,0,0,0,2.84-.87Z" />
            <path class="cls-1" d="M134.76,30.11h.32c.22,0,.41,0,.41-.3s-.21-.27-.4-.27h-.33Zm-.36-.84h.73c.47,0,.72.16.72.57a.49.49,0,0,1-.51.53l.53.86h-.38l-.51-.85h-.22v.85h-.36Zm2,1a1.32,1.32,0,1,0-1.31,1.39,1.33,1.33,0,0,0,1.31-1.39m-3,0A1.74,1.74,0,1,1,135.07,32a1.74,1.74,0,0,1-1.74-1.73" />
        </g>
    </g>
</svg>