<svg viewBox="0 0 140 140" height="20" width="20" xmlns="http://www.w3.org/2000/svg"><g transform="matrix(5.833333333333333,0,0,5.833333333333333,0,0)"><path d="M7.5,3.75H4.636A1.573,1.573,0,0,0,3,5.25v16.5a1.573,1.573,0,0,0,1.636,1.5H19.364A1.573,1.573,0,0,0,21,21.75V5.25a1.573,1.573,0,0,0-1.636-1.5H16.5" fill="white" stroke="#3388DD" stroke-linecap="round" stroke-linejoin="round" stroke-width="1.5"></path><path d="M16.5,13.5a.75.75,0,0,0-.75-.75H13.5V10.5a.75.75,0,0,0-.75-.75h-1.5a.75.75,0,0,0-.75.75v2.25H8.25a.75.75,0,0,0-.75.75V15a.75.75,0,0,0,.75.75H10.5V18a.75.75,0,0,0,.75.75h1.5A.75.75,0,0,0,13.5,18V15.75h2.25A.75.75,0,0,0,16.5,15Z" fill="#3388DD" stroke="white" stroke-width="1"></path><path d="M14.584,2.25a2.976,2.976,0,0,0-5.168,0H8.25A.75.75,0,0,0,7.5,3V6a.75.75,0,0,0,.75.75h7.5A.75.75,0,0,0,16.5,6V3a.75.75,0,0,0-.75-.75Z" fill="white" stroke="#3388DD" stroke-linecap="round" stroke-linejoin="round" stroke-width="1.5"></path></g></svg>