<svg xmlns="http://www.w3.org/2000/svg" width="13.3" height="13.3" viewBox="0 0 13.3 13.3">
  <path id="Icon_metro-flow-tree" data-name="Icon metro-flow-tree" d="M15.806,12.531V10.886A2.476,2.476,0,0,0,13.33,8.41H11.915a1.062,1.062,0,0,1-1.061-1.061V5.705a1.7,1.7,0,1,0-1.415,0V7.349A1.062,1.062,0,0,1,8.378,8.41H6.963a2.476,2.476,0,0,0-2.476,2.476v1.644a1.7,1.7,0,1,0,1.415,0V10.886A1.062,1.062,0,0,1,6.963,9.825H8.378a2.45,2.45,0,0,0,1.061-.248v2.953a1.7,1.7,0,1,0,1.415,0V9.578a2.45,2.45,0,0,0,1.061.248H13.33a1.062,1.062,0,0,1,1.061,1.061v1.644a1.7,1.7,0,1,0,1.415,0Zm-5.66-9.345a.98.98,0,1,1-.979.98.979.979,0,0,1,.979-.98ZM5.194,15.05a.98.98,0,1,1,.979-.98.98.98,0,0,1-.979.98Zm4.952,0a.98.98,0,1,1,.979-.98.98.98,0,0,1-.979.98Zm4.952,0a.98.98,0,1,1,.979-.98.98.98,0,0,1-.979.98Z" transform="translate(-2.468 16.796) rotate(-90)" fill="#444"/>
</svg>
